<?xml version="1.0" encoding="UTF-8" standalone="no"?>
<!DOCTYPE svg PUBLIC "-//W3C//DTD SVG 1.1//EN"
 "http://www.w3.org/Graphics/SVG/1.1/DTD/svg11.dtd">
<!-- Generated by graphviz version 2.47.0 (20210316.0004)
 -->
<!-- Title: dependencies Pages: 1 -->
<svg width="980pt" height="287pt"
 viewBox="0.00 0.00 980.00 287.00" xmlns="http://www.w3.org/2000/svg" xmlns:xlink="http://www.w3.org/1999/xlink">
<g id="graph0" class="graph" transform="scale(1 1) rotate(0) translate(4 283)">
<title>dependencies</title>
<polygon fill="white" stroke="transparent" points="-4,4 -4,-283 976,-283 976,4 -4,4"/>
<text text-anchor="start" x="465.01" y="-42.4" font-family="Times-12" font-weight="bold" font-size="14.00">Legend</text>
<polygon fill="#ffffb3" stroke="transparent" points="252,-10 252,-30 272,-30 272,-10 252,-10"/>
<text text-anchor="start" x="275.63" y="-15.4" font-family="Times-12" font-size="14.00"> &#160;Declarations</text>
<polygon fill="#8dd3c7" stroke="transparent" points="365,-10 365,-30 385,-30 385,-10 365,-10"/>
<text text-anchor="start" x="388.73" y="-15.4" font-family="Times-12" font-size="14.00"> &#160;Module</text>
<polygon fill="#80b1d3" stroke="transparent" points="451,-10 451,-30 471,-30 471,-10 451,-10"/>
<text text-anchor="start" x="474.78" y="-15.4" font-family="Times-12" font-size="14.00"> &#160;Bootstrap</text>
<polygon fill="#fdb462" stroke="transparent" points="548,-10 548,-30 568,-30 568,-10 548,-10"/>
<text text-anchor="start" x="571.67" y="-15.4" font-family="Times-12" font-size="14.00"> &#160;Providers</text>
<polygon fill="#fb8072" stroke="transparent" points="644,-10 644,-30 664,-30 664,-10 644,-10"/>
<text text-anchor="start" x="667.73" y="-15.4" font-family="Times-12" font-size="14.00"> &#160;Exports</text>
<g id="clust1" class="cluster">
<title>cluster_AppModule</title>
<polygon fill="none" stroke="black" stroke-dasharray="1,5" points="412,-70 412,-271 682,-271 682,-70 412,-70"/>
</g>
<g id="clust3" class="cluster">
<title>cluster_AppModule_imports</title>
<polygon fill="none" stroke="black" points="558,-78 558,-206 666,-206 666,-78 558,-78"/>
</g>
<g id="clust6" class="cluster">
<title>cluster_AppModule_providers</title>
<polygon fill="none" stroke="black" points="420,-154 420,-206 550,-206 550,-154 420,-154"/>
</g>
<g id="clust7" class="cluster">
<title>cluster_AuthModule</title>
<polygon fill="none" stroke="black" stroke-dasharray="1,5" points="8,-70 8,-138 404,-138 404,-70 8,-70"/>
</g>
<g id="clust10" class="cluster">
<title>cluster_AuthModule_exports</title>
<polygon fill="none" stroke="black" points="290,-78 290,-130 396,-130 396,-78 290,-78"/>
</g>
<g id="clust12" class="cluster">
<title>cluster_AuthModule_providers</title>
<polygon fill="none" stroke="black" points="16,-78 16,-130 282,-130 282,-78 16,-78"/>
</g>
<g id="clust13" class="cluster">
<title>cluster_UsersModule</title>
<polygon fill="none" stroke="black" stroke-dasharray="1,5" points="690,-146 690,-214 964,-214 964,-146 690,-146"/>
</g>
<g id="clust16" class="cluster">
<title>cluster_UsersModule_exports</title>
<polygon fill="none" stroke="black" points="846,-154 846,-206 956,-206 956,-154 846,-154"/>
</g>
<g id="clust18" class="cluster">
<title>cluster_UsersModule_providers</title>
<polygon fill="none" stroke="black" points="698,-154 698,-206 838,-206 838,-154 698,-154"/>
</g>
<!-- AuthModule -->
<g id="node1" class="node">
<title>AuthModule</title>
<polygon fill="#8dd3c7" stroke="black" points="653.55,-198 650.55,-202 629.55,-202 626.55,-198 566.45,-198 566.45,-162 653.55,-162 653.55,-198"/>
<text text-anchor="middle" x="610" y="-175.8" font-family="Times,serif" font-size="14.00">AuthModule</text>
</g>
<!-- AppModule -->
<g id="node3" class="node">
<title>AppModule</title>
<polygon fill="#8dd3c7" stroke="black" points="651.66,-263 648.66,-267 627.66,-267 624.66,-263 568.34,-263 568.34,-227 651.66,-227 651.66,-263"/>
<text text-anchor="middle" x="610" y="-240.8" font-family="Times,serif" font-size="14.00">AppModule</text>
</g>
<!-- AuthModule&#45;&gt;AppModule -->
<g id="edge1" class="edge">
<title>AuthModule&#45;&gt;AppModule</title>
<path fill="none" stroke="black" d="M610,-198.11C610,-198.11 610,-216.99 610,-216.99"/>
<polygon fill="black" stroke="black" points="606.5,-216.99 610,-226.99 613.5,-216.99 606.5,-216.99"/>
</g>
<!-- AuthService  -->
<g id="node5" class="node">
<title>AuthService </title>
<polygon fill="#fb8072" stroke="black" points="387.98,-122 298.02,-122 298.02,-86 387.98,-86 387.98,-122"/>
<text text-anchor="middle" x="343" y="-99.8" font-family="Times,serif" font-size="14.00">AuthService </text>
</g>
<!-- AuthModule&#45;&gt;AuthService  -->
<g id="edge5" class="edge">
<title>AuthModule&#45;&gt;AuthService </title>
<path fill="none" stroke="black" stroke-dasharray="5,2" d="M566.15,-180C561.27,-180 558.02,-180 558.02,-180 558.02,-180 558.02,-98 558.02,-98 558.02,-98 397.81,-98 397.81,-98"/>
<polygon fill="black" stroke="black" points="397.81,-94.5 387.81,-98 397.81,-101.5 397.81,-94.5"/>
</g>
<!-- UsersModule -->
<g id="node2" class="node">
<title>UsersModule</title>
<polygon fill="#8dd3c7" stroke="black" points="657.92,-122 654.92,-126 633.92,-126 630.92,-122 566.08,-122 566.08,-86 657.92,-86 657.92,-122"/>
<text text-anchor="middle" x="612" y="-99.8" font-family="Times,serif" font-size="14.00">UsersModule</text>
</g>
<!-- UsersModule&#45;&gt;AuthModule -->
<g id="edge4" class="edge">
<title>UsersModule&#45;&gt;AuthModule</title>
<path fill="none" stroke="black" d="M631.9,-122.01C631.9,-122.01 631.9,-151.85 631.9,-151.85"/>
<polygon fill="black" stroke="black" points="628.4,-151.85 631.9,-161.85 635.4,-151.85 628.4,-151.85"/>
</g>
<!-- UsersModule&#45;&gt;AppModule -->
<g id="edge2" class="edge">
<title>UsersModule&#45;&gt;AppModule</title>
<path fill="none" stroke="black" d="M566.16,-110C556.84,-110 549.82,-110 549.82,-110 549.82,-110 549.82,-239 549.82,-239 549.82,-239 558.2,-239 558.2,-239"/>
<polygon fill="black" stroke="black" points="558.2,-242.5 568.2,-239 558.2,-235.5 558.2,-242.5"/>
</g>
<!-- UsersService  -->
<g id="node8" class="node">
<title>UsersService </title>
<polygon fill="#fb8072" stroke="black" points="947.85,-198 854.15,-198 854.15,-162 947.85,-162 947.85,-198"/>
<text text-anchor="middle" x="901" y="-175.8" font-family="Times,serif" font-size="14.00">UsersService </text>
</g>
<!-- UsersModule&#45;&gt;UsersService  -->
<g id="edge8" class="edge">
<title>UsersModule&#45;&gt;UsersService </title>
<path fill="none" stroke="black" stroke-dasharray="5,2" d="M657.79,-98C739.28,-98 901,-98 901,-98 901,-98 901,-151.8 901,-151.8"/>
<polygon fill="black" stroke="black" points="897.5,-151.8 901,-161.8 904.5,-151.8 897.5,-151.8"/>
</g>
<!-- AppService -->
<g id="node4" class="node">
<title>AppService</title>
<ellipse fill="#fdb462" stroke="black" cx="485" cy="-180" rx="56.74" ry="18"/>
<text text-anchor="middle" x="485" y="-175.8" font-family="Times,serif" font-size="14.00">AppService</text>
</g>
<!-- AppService&#45;&gt;AppModule -->
<g id="edge3" class="edge">
<title>AppService&#45;&gt;AppModule</title>
<path fill="none" stroke="black" d="M485,-198.28C485,-219.32 485,-251 485,-251 485,-251 558.03,-251 558.03,-251"/>
<polygon fill="black" stroke="black" points="558.03,-254.5 568.03,-251 558.03,-247.5 558.03,-254.5"/>
</g>
<!-- AuthService -->
<g id="node6" class="node">
<title>AuthService</title>
<ellipse fill="#fdb462" stroke="black" cx="215" cy="-104" rx="59.11" ry="18"/>
<text text-anchor="middle" x="215" y="-99.8" font-family="Times,serif" font-size="14.00">AuthService</text>
</g>
<!-- AuthService&#45;&gt;AuthModule -->
<g id="edge6" class="edge">
<title>AuthService&#45;&gt;AuthModule</title>
<path fill="none" stroke="black" d="M215,-122.24C215,-129.43 215,-136 215,-136 215,-136 610.03,-136 610.03,-136 610.03,-136 610.03,-151.85 610.03,-151.85"/>
<polygon fill="black" stroke="black" points="606.53,-151.85 610.03,-161.85 613.53,-151.85 606.53,-151.85"/>
</g>
<!-- JwtStrategy -->
<g id="node7" class="node">
<title>JwtStrategy</title>
<ellipse fill="#fdb462" stroke="black" cx="81" cy="-104" rx="56.76" ry="18"/>
<text text-anchor="middle" x="81" y="-99.8" font-family="Times,serif" font-size="14.00">JwtStrategy</text>
</g>
<!-- JwtStrategy&#45;&gt;AuthModule -->
<g id="edge7" class="edge">
<title>JwtStrategy&#45;&gt;AuthModule</title>
<path fill="none" stroke="black" d="M81,-122.04C81,-134.56 81,-149 81,-149 81,-149 588.16,-149 588.16,-149 588.16,-149 588.16,-151.97 588.16,-151.97"/>
<polygon fill="black" stroke="black" points="584.66,-151.97 588.16,-161.97 591.66,-151.97 584.66,-151.97"/>
</g>
<!-- UsersService -->
<g id="node9" class="node">
<title>UsersService</title>
<ellipse fill="#fdb462" stroke="black" cx="768" cy="-180" rx="61.95" ry="18"/>
<text text-anchor="middle" x="768" y="-175.8" font-family="Times,serif" font-size="14.00">UsersService</text>
</g>
<!-- UsersService&#45;&gt;UsersModule -->
<g id="edge9" class="edge">
<title>UsersService&#45;&gt;UsersModule</title>
<path fill="none" stroke="black" d="M768,-161.97C768,-141.23 768,-110 768,-110 768,-110 667.96,-110 667.96,-110"/>
<polygon fill="black" stroke="black" points="667.96,-106.5 657.96,-110 667.96,-113.5 667.96,-106.5"/>
</g>
</g>
</svg>
